<?xml version="1.0" encoding="UTF-8"?>
<svg id="Camada_1" data-name="Camada 1" xmlns="http://www.w3.org/2000/svg" viewBox="0 0 1166.25 505.57">
  <defs>
    <style>
      .cls-1 {
        fill: #4ccb7a;
      }

      .cls-2 {
        fill: #2f8fa3;
      }

      .cls-3 {
        fill: #e8eded;
      }
    </style>
  </defs>
  <g>
    <path class="cls-2" d="M0,75.6h72.97l22.82,97.54,2.26,17.3h5.77l2.26-17.3,22.82-97.54h70.71v173.01h-42.88l2.51-101.55v-18.81h-6.02l-2.51,16.8-26.58,103.56h-47.64l-26.58-103.56-2.51-16.8h-6.27v18.81l2.76,101.55H0V75.6Z"/>
    <path class="cls-2" d="M229.38,234.45c-11.28-11.28-16.93-27.54-16.93-48.77s5.89-38.53,17.68-50.4c11.78-11.87,27.96-17.8,48.52-17.8s35.94,5.56,46.64,16.68c10.7,11.12,16.05,27.54,16.05,49.27v9.03h-82.75c.67,10.2,2.63,17.51,5.89,21.94,3.26,4.43,8.06,6.65,14.42,6.65,9.86,0,15.8-5.18,17.8-15.55h44.38c-1.67,13.88-7.98,24.99-18.93,33.35-10.95,8.36-25.87,12.54-44.76,12.54-20.73,0-36.73-5.64-48.02-16.93ZM254.33,102.43l26.08-34.35h39.37v6.27l-37.11,34.6h-28.33v-6.52ZM297.46,168.63c-1-7.85-3.01-13.54-6.02-17.05-3.01-3.51-7.27-5.27-12.79-5.27s-9.61,1.76-12.79,5.27c-3.18,3.51-5.35,9.2-6.52,17.05h38.11Z"/>
    <path class="cls-2" d="M374.01,239.96c-8.11-7.6-12.16-18.76-12.16-33.47v-55.66h-18.81v-30.34h18.81v-34.1h45.38v34.1h31.34v30.34h-31.34v47.64c0,5.52,1.5,9.61,4.51,12.29,3.01,2.68,7.61,4.01,13.79,4.01,3.17,0,7.69-.59,13.54-1.76v34.85c-8.19,2.34-17.89,3.51-29.09,3.51-15.88,0-27.88-3.8-35.98-11.41Z"/>
    <path class="cls-2" d="M460.91,234.07c-11.62-11.7-17.43-28.17-17.43-49.4s5.81-37.74,17.43-49.52c11.62-11.78,27.96-17.68,49.02-17.68s37.61,5.85,49.15,17.55c11.54,11.7,17.3,28.25,17.3,49.65s-5.77,37.91-17.3,49.52c-11.53,11.62-27.92,17.43-49.15,17.43s-37.4-5.85-49.02-17.55ZM531,184.42c0-22.23-6.94-33.35-20.81-33.35s-21.31,11.12-21.31,33.35c0,11.03,1.79,19.39,5.39,25.07,3.59,5.68,8.9,8.53,15.92,8.53,13.87,0,20.81-11.2,20.81-33.6Z"/>
    <path class="cls-2" d="M596.69,234.07c-9.45-11.54-14.17-28-14.17-49.4s4.76-38.15,14.29-49.77c9.53-11.62,22.4-17.43,38.61-17.43,10.86,0,19.85,2.22,26.96,6.65,7.1,4.43,12.49,10.16,16.17,17.18h4.01l-3.51-11.78-10.28-11.54v-49.9h45.64v180.54h-35.36v-8.78l3.51-12.29h-4.01c-3.51,6.86-8.86,12.54-16.05,17.05-7.19,4.51-16.3,6.77-27.33,6.77-16.22,0-29.05-5.77-38.49-17.3ZM669.53,184.42c0-22.07-6.69-33.1-20.06-33.1s-20.31,11.03-20.31,33.1c0,10.87,1.71,19.1,5.14,24.7,3.42,5.6,8.48,8.4,15.17,8.4,13.37,0,20.06-11.03,20.06-33.1Z"/>
    <path class="cls-2" d="M742.07,234.07c-11.62-11.7-17.43-28.17-17.43-49.4s5.81-37.74,17.43-49.52c11.62-11.78,27.96-17.68,49.02-17.68s37.61,5.85,49.15,17.55c11.54,11.7,17.3,28.25,17.3,49.65s-5.77,37.91-17.3,49.52c-11.53,11.62-27.92,17.43-49.15,17.43s-37.4-5.85-49.02-17.55ZM812.16,184.42c0-22.23-6.94-33.35-20.81-33.35s-21.31,11.12-21.31,33.35c0,11.03,1.79,19.39,5.39,25.07,3.59,5.68,8.9,8.53,15.92,8.53,13.87,0,20.81-11.2,20.81-33.6Z"/>
  </g>
  <g>
    <path class="cls-3" d="M5.74,285.16h112.33v21.81H31.06v52.41h74.47v20.81H31.06v56.17h88.26v21.81H5.74v-173.01Z"/>
    <path class="cls-3" d="M136.32,331.55h19.56v11.28l-1.5,11.03h2.01c3.17-7.35,8.23-13.29,15.17-17.8,6.94-4.51,15.5-6.77,25.7-6.77,8.53,0,15.75,1.76,21.69,5.27,5.93,3.51,10.24,8.36,12.91,14.54l-1.5,7.02h2.01c3.17-7.85,8.44-14.29,15.8-19.31,7.35-5.02,16.46-7.52,27.33-7.52,12.7,0,22.65,3.51,29.84,10.53,7.19,7.02,10.78,17.05,10.78,30.09v88.01h-24.82v-83.5c0-17.05-7.77-25.58-23.32-25.58-9.03,0-16.17,2.84-21.44,8.53-5.27,5.68-7.9,13.46-7.9,23.32v77.48h-24.82v-83.75c0-8.36-1.97-14.71-5.89-19.06-3.93-4.34-9.74-6.52-17.43-6.52-9.03,0-16.13,2.84-21.31,8.53-5.18,5.68-7.77,13.54-7.77,23.57v77.23h-25.07v-126.63Z"/>
    <path class="cls-3" d="M345.02,451.28c-7.44-6.1-11.16-14.5-11.16-25.2s3.51-18.64,10.53-24.83c7.02-6.18,18.64-10.28,34.85-12.29l40.87-5.02v-8.78c0-9.19-2.59-16.13-7.77-20.81-5.18-4.68-12.54-7.02-22.07-7.02s-16.26,2.17-21.19,6.52c-4.93,4.35-7.48,10.78-7.65,19.31h-25.07c.17-14.38,5.06-25.33,14.67-32.85,9.61-7.52,23.03-11.28,40.25-11.28s31.59,4.01,40.62,12.04c9.03,8.03,13.54,19.73,13.54,35.1v81.99h-20.31v-11.78l2.01-11.54h-3.01c-3.68,7.36-9.49,13.46-17.43,18.3-7.94,4.85-18.01,7.27-30.21,7.27-13.54,0-24.03-3.05-31.47-9.15ZM365.33,437.62c4.26,3.35,10.07,5.02,17.43,5.02,11.2,0,20.22-3.17,27.08-9.53,6.85-6.35,10.28-14.71,10.28-25.07v-8.27l-36.11,4.01c-8.69,1.17-15.05,3.34-19.06,6.52-4.01,3.18-6.02,7.52-6.02,13.04,0,6.19,2.13,10.95,6.39,14.29Z"/>
    <path class="cls-3" d="M481.12,494.28c-9.78-7.52-15.26-18.39-16.42-32.6h25.58c.83,8.19,4.01,14.5,9.53,18.93,5.52,4.43,13.04,6.65,22.57,6.65,21.9,0,33.18-11.54,33.85-34.6l4.76-12.04,2.01-10.03h-2.51c-3.51,7.52-9.11,13.67-16.8,18.43-7.69,4.76-17.05,7.15-28.08,7.15-16.72,0-29.59-5.72-38.61-17.18-9.03-11.45-13.54-26.96-13.54-46.51s4.55-34.81,13.67-46.26c9.11-11.45,21.94-17.18,38.49-17.18,11.03,0,20.35,2.34,27.96,7.02,7.61,4.68,13.25,10.78,16.93,18.3h2.26l-1.76-11.54v-11.28h21.82v119.61c0,17.38-5.02,30.8-15.05,40.24-10.03,9.44-25.16,14.17-45.38,14.17-17.72,0-31.47-3.76-41.25-11.28ZM547.69,425.83c5.85-7.86,8.78-18.97,8.78-33.35s-2.93-25.24-8.78-33.1c-5.85-7.86-14.04-11.79-24.57-11.79s-18.93,4.06-24.7,12.16c-5.77,8.11-8.65,19.02-8.65,32.72s2.88,25.07,8.65,33.1c5.77,8.03,14,12.04,24.7,12.04s18.72-3.92,24.57-11.78Z"/>
    <path class="cls-3" d="M605.89,331.55h20.56v10.28l-1.76,14.04h2.26c2.67-8.02,7.31-14.5,13.91-19.43,6.6-4.93,14.92-7.4,24.95-7.4,7.02,0,12.87,1,17.55,3.01v24.07c-5.68-2.01-11.45-3.01-17.3-3.01-10.87,0-19.35,3.51-25.45,10.53-6.1,7.02-9.15,16.89-9.15,29.59v64.94h-25.58v-126.63Z"/>
    <path class="cls-3" d="M705.76,443.26c-10.2-11.45-15.3-27.46-15.3-48.02s5.3-36.69,15.92-48.39c10.61-11.7,25.45-17.55,44.51-17.55s32.43,5.52,42.13,16.55c9.69,11.03,14.54,26.75,14.54,47.14v5.27h-91.02c1,28.75,12.54,43.13,34.6,43.13,8.53,0,15.38-2.05,20.56-6.14,5.18-4.1,8.61-9.82,10.28-17.18h24.57c-2.01,13.04-7.9,23.36-17.68,30.97-9.78,7.61-22.78,11.41-38.99,11.41-19.22,0-33.94-5.72-44.13-17.18ZM782.24,382.7c-1-11.7-4.22-20.56-9.65-26.58-5.44-6.02-13-9.03-22.69-9.03s-17.01,3.01-22.44,9.03c-5.43,6.02-8.82,14.88-10.16,26.58h64.94Z"/>
    <path class="cls-3" d="M837.08,443.01c-10.53-11.78-15.8-28.12-15.8-49.02s5.35-36.32,16.05-47.77c10.7-11.45,25.83-17.18,45.38-17.18,16.55,0,29.92,4.1,40.12,12.29,10.19,8.19,16.05,19.64,17.55,34.35h-26.08c-1.84-8.86-5.44-15.63-10.78-20.31-5.35-4.68-12.37-7.02-21.06-7.02-11.54,0-20.31,4.01-26.33,12.04-6.02,8.02-9.03,19.48-9.03,34.35s3.01,26.33,9.03,34.35c6.02,8.03,14.79,12.04,26.33,12.04,8.53,0,15.5-2.34,20.94-7.02,5.43-4.68,9.07-11.45,10.91-20.31h26.08c-1.51,14.71-7.32,26.2-17.43,34.48-10.12,8.27-23.61,12.41-40.49,12.41-19.73,0-34.85-5.89-45.38-17.68Z"/>
    <path class="cls-3" d="M967.84,443.26c-10.2-11.45-15.3-27.46-15.3-48.02s5.3-36.69,15.92-48.39c10.61-11.7,25.45-17.55,44.51-17.55s32.43,5.52,42.13,16.55c9.69,11.03,14.54,26.75,14.54,47.14v5.27h-91.02c1,28.75,12.54,43.13,34.6,43.13,8.53,0,15.38-2.05,20.56-6.14,5.18-4.1,8.61-9.82,10.28-17.18h24.57c-2.01,13.04-7.9,23.36-17.68,30.97-9.78,7.61-22.78,11.41-38.99,11.41-19.22,0-33.94-5.72-44.13-17.18ZM1044.31,382.7c-1-11.7-4.22-20.56-9.65-26.58-5.44-6.02-13-9.03-22.69-9.03s-17.01,3.01-22.44,9.03c-5.43,6.02-8.82,14.88-10.16,26.58h64.94Z"/>
    <path class="cls-3" d="M1088.32,331.55h20.56v10.28l-1.76,14.04h2.26c2.67-8.02,7.31-14.5,13.91-19.43,6.6-4.93,14.92-7.4,24.95-7.4,7.02,0,12.87,1,17.55,3.01v24.07c-5.68-2.01-11.45-3.01-17.3-3.01-10.87,0-19.35,3.51-25.45,10.53-6.1,7.02-9.15,16.89-9.15,29.59v64.94h-25.58v-126.63Z"/>
  </g>
  <path class="cls-1" d="M1140.43,183.23c-2.95,13.17-8.27,22.05-19.46,29.81v-66.87c-.3-21.86-.73-67.08-.73-67.08-1.16-8.47-16.66-8.29-22.19-3.33l-59.98,53.64c-3.18,2.84-7.74-1.16-10.3-3.4l-58.31-51.07c-5.67-4.97-20.48-2.82-20.53,5.81,0,0-.71,112.64-.44,149.7-16.76-15.53-26.26-36.06-26.26-58.58l.56-103.36c.04-9.54,6.36-17.31,14.88-19.93l73.18-22.56c12.26-3.78,24.09-4.96,36.6-1.41l75.87,22.67c11.79,3.34,19.35,12.25,19.44,25.04l.74,86.39c.05,7.37,6.75,9.13,12.45,8.32,5.89-.84,10.31-5.95,10.29-13.27l-.2-84.97c-.04-20.1-10.09-33.66-28.94-39.37l-75.73-24.18c-20.86-6.32-40.34-7.32-61.18-.63l-81.33,26.12c-12.66,4.07-20.12,12.56-20.01,26.33l1.02,114.36c.18,23.04,4.53,54.84,39.88,82.44,22.52,17.58,44.19,28.5,93.24,29.22,58.07-5.95,92.3-42.08,107.52-55.83,10.28-9.28,24.75-29.43,22.72-41.93-2.16-13.35-20.56-12.08-22.81-2.06ZM1032.43,259.59c-19.41.05-36.93-3.31-52-9.32l-.91-124.17,38.52,34.31c1.48,1.32,3.09,2.49,4.82,3.45,7.11,3.95,13.59,4.93,20.69,1.97,2.87-1.2,5.45-2.98,7.72-5.11l39.03-36.49.13,53.1h0s-.53,59.35-.53,59.35c-17.29,11-36.85,20.65-57.46,22.9Z"/>
</svg>