<?xml version="1.0" encoding="UTF-8"?>
<svg id="Camada_1" data-name="Camada 1" xmlns="http://www.w3.org/2000/svg" viewBox="0 0 1160.06 505.57">
  <defs>
    <style>
      .cls-1 {
        fill: #0a1f44;
      }

      .cls-2 {
        fill: #fff;
      }

      .cls-3 {
        fill: #2f8fa3;
      }
    </style>
  </defs>
  <g>
    <path class="cls-2" d="M6.95,77.49h72.17l22.57,96.48,2.23,17.11h5.7l2.23-17.11,22.57-96.48h69.94v171.13h-42.41l2.48-100.44v-18.6h-5.95l-2.48,16.62-26.29,102.43h-47.12l-26.29-102.43-2.48-16.62h-6.2v18.6l2.73,100.44H6.95V77.49Z"/>
    <path class="cls-2" d="M233.83,234.6c-11.16-11.16-16.74-27.24-16.74-48.24s5.83-38.11,17.48-49.85c11.66-11.74,27.65-17.61,47.99-17.61s35.55,5.5,46.13,16.49c10.58,11,15.87,27.24,15.87,48.74v8.93h-81.84c.66,10.09,2.6,17.32,5.83,21.7,3.22,4.38,7.97,6.57,14.26,6.57,9.75,0,15.62-5.12,17.61-15.38h43.9c-1.65,13.72-7.9,24.72-18.72,32.98-10.83,8.27-25.59,12.4-44.27,12.4-20.5,0-36.33-5.58-47.49-16.74ZM258.5,104.02l25.79-33.98h38.94v6.2l-36.7,34.22h-28.03v-6.45ZM301.16,169.5c-.99-7.77-2.98-13.39-5.95-16.86-2.98-3.47-7.19-5.21-12.65-5.21s-9.51,1.74-12.65,5.21c-3.14,3.47-5.29,9.1-6.45,16.86h37.7Z"/>
    <path class="cls-2" d="M376.88,240.06c-8.02-7.52-12.03-18.56-12.03-33.11v-55.06h-18.6v-30.01h18.6v-33.73h44.89v33.73h31v30.01h-31v47.12c0,5.46,1.49,9.51,4.46,12.15,2.98,2.65,7.52,3.97,13.64,3.97,3.14,0,7.6-.58,13.39-1.74v34.47c-8.1,2.31-17.69,3.47-28.77,3.47-15.71,0-27.57-3.76-35.59-11.28Z"/>
    <path class="cls-2" d="M462.83,234.23c-11.49-11.57-17.24-27.86-17.24-48.86s5.74-37.33,17.24-48.98c11.49-11.66,27.65-17.49,48.49-17.49s37.2,5.79,48.61,17.36c11.41,11.57,17.11,27.94,17.11,49.11s-5.7,37.49-17.11,48.98c-11.41,11.49-27.62,17.24-48.61,17.24s-37-5.79-48.49-17.36ZM532.15,185.12c0-21.99-6.86-32.98-20.58-32.98s-21.08,11-21.08,32.98c0,10.91,1.77,19.18,5.33,24.8,3.55,5.62,8.8,8.43,15.75,8.43,13.72,0,20.58-11.08,20.58-33.23Z"/>
    <path class="cls-2" d="M597.13,234.23c-9.34-11.41-14.01-27.69-14.01-48.86s4.71-37.74,14.14-49.23c9.42-11.49,22.15-17.24,38.19-17.24,10.75,0,19.63,2.19,26.66,6.57,7.03,4.38,12.36,10.04,16,16.99h3.97l-3.47-11.66-10.17-11.41v-49.35h45.14v178.57h-34.97v-8.68l3.47-12.15h-3.97c-3.47,6.78-8.77,12.4-15.87,16.86-7.11,4.46-16.12,6.7-27.03,6.7-16.04,0-28.73-5.7-38.07-17.11ZM669.18,185.12c0-21.82-6.61-32.74-19.84-32.74s-20.09,10.91-20.09,32.74c0,10.75,1.69,18.89,5.08,24.43,3.39,5.54,8.39,8.31,15.01,8.31,13.23,0,19.84-10.91,19.84-32.74Z"/>
    <path class="cls-2" d="M740.93,234.23c-11.49-11.57-17.24-27.86-17.24-48.86s5.74-37.33,17.24-48.98c11.49-11.66,27.65-17.49,48.49-17.49s37.2,5.79,48.61,17.36c11.41,11.57,17.11,27.94,17.11,49.11s-5.7,37.49-17.11,48.98c-11.41,11.49-27.62,17.24-48.61,17.24s-37-5.79-48.49-17.36ZM810.25,185.12c0-21.99-6.86-32.98-20.58-32.98s-21.08,11-21.08,32.98c0,10.91,1.77,19.18,5.33,24.8,3.55,5.62,8.8,8.43,15.75,8.43,13.72,0,20.58-11.08,20.58-33.23Z"/>
  </g>
  <g>
    <path class="cls-3" d="M0,285.16h112.33v21.81H25.32v52.41h74.47v20.81H25.32v56.17h88.26v21.81H0v-173.01Z"/>
    <path class="cls-3" d="M130.59,331.55h19.56v11.28l-1.5,11.03h2.01c3.17-7.35,8.23-13.29,15.17-17.8,6.94-4.51,15.5-6.77,25.7-6.77,8.53,0,15.75,1.76,21.69,5.27,5.93,3.51,10.24,8.36,12.91,14.54l-1.5,7.02h2.01c3.17-7.85,8.44-14.29,15.8-19.31,7.35-5.02,16.46-7.52,27.33-7.52,12.7,0,22.65,3.51,29.84,10.53,7.19,7.02,10.78,17.05,10.78,30.09v88.01h-24.82v-83.5c0-17.05-7.77-25.58-23.32-25.58-9.03,0-16.17,2.84-21.44,8.53-5.27,5.68-7.9,13.46-7.9,23.32v77.48h-24.82v-83.75c0-8.36-1.97-14.71-5.89-19.06-3.93-4.34-9.74-6.52-17.43-6.52-9.03,0-16.13,2.84-21.31,8.53-5.18,5.68-7.77,13.54-7.77,23.57v77.23h-25.07v-126.63Z"/>
    <path class="cls-3" d="M339.28,451.28c-7.44-6.1-11.16-14.5-11.16-25.2s3.51-18.64,10.53-24.83c7.02-6.18,18.64-10.28,34.85-12.29l40.87-5.02v-8.78c0-9.19-2.59-16.13-7.77-20.81-5.18-4.68-12.54-7.02-22.07-7.02s-16.26,2.17-21.19,6.52c-4.93,4.35-7.48,10.78-7.65,19.31h-25.07c.17-14.38,5.06-25.33,14.67-32.85,9.61-7.52,23.03-11.28,40.25-11.28s31.59,4.01,40.62,12.04c9.03,8.03,13.54,19.73,13.54,35.1v81.99h-20.31v-11.78l2.01-11.54h-3.01c-3.68,7.36-9.49,13.46-17.43,18.3-7.94,4.85-18.01,7.27-30.21,7.27-13.54,0-24.03-3.05-31.47-9.15ZM359.59,437.62c4.26,3.35,10.07,5.02,17.43,5.02,11.2,0,20.22-3.17,27.08-9.53,6.85-6.35,10.28-14.71,10.28-25.07v-8.27l-36.11,4.01c-8.69,1.17-15.05,3.34-19.06,6.52-4.01,3.18-6.02,7.52-6.02,13.04,0,6.19,2.13,10.95,6.39,14.29Z"/>
    <path class="cls-3" d="M475.38,494.28c-9.78-7.52-15.26-18.39-16.42-32.6h25.58c.83,8.19,4.01,14.5,9.53,18.93,5.52,4.43,13.04,6.65,22.57,6.65,21.9,0,33.18-11.54,33.85-34.6l4.76-12.04,2.01-10.03h-2.51c-3.51,7.52-9.11,13.67-16.8,18.43-7.69,4.76-17.05,7.15-28.08,7.15-16.72,0-29.59-5.72-38.61-17.18-9.03-11.45-13.54-26.96-13.54-46.51s4.55-34.81,13.67-46.26c9.11-11.45,21.94-17.18,38.49-17.18,11.03,0,20.35,2.34,27.96,7.02,7.61,4.68,13.25,10.78,16.93,18.3h2.26l-1.76-11.54v-11.28h21.82v119.61c0,17.38-5.02,30.8-15.05,40.24-10.03,9.44-25.16,14.17-45.38,14.17-17.72,0-31.47-3.76-41.25-11.28ZM541.96,425.83c5.85-7.86,8.78-18.97,8.78-33.35s-2.93-25.24-8.78-33.1c-5.85-7.86-14.04-11.79-24.57-11.79s-18.93,4.06-24.7,12.16c-5.77,8.11-8.65,19.02-8.65,32.72s2.88,25.07,8.65,33.1c5.77,8.03,14,12.04,24.7,12.04s18.72-3.92,24.57-11.78Z"/>
    <path class="cls-3" d="M600.15,331.55h20.56v10.28l-1.76,14.04h2.26c2.67-8.02,7.31-14.5,13.91-19.43,6.6-4.93,14.92-7.4,24.95-7.4,7.02,0,12.87,1,17.55,3.01v24.07c-5.68-2.01-11.45-3.01-17.3-3.01-10.87,0-19.35,3.51-25.45,10.53-6.1,7.02-9.15,16.89-9.15,29.59v64.94h-25.58v-126.63Z"/>
    <path class="cls-3" d="M700.02,443.26c-10.2-11.45-15.3-27.46-15.3-48.02s5.3-36.69,15.92-48.39c10.61-11.7,25.45-17.55,44.51-17.55s32.43,5.52,42.13,16.55c9.69,11.03,14.54,26.75,14.54,47.14v5.27h-91.02c1,28.75,12.54,43.13,34.6,43.13,8.53,0,15.38-2.05,20.56-6.14,5.18-4.1,8.61-9.82,10.28-17.18h24.57c-2.01,13.04-7.9,23.36-17.68,30.97-9.78,7.61-22.78,11.41-38.99,11.41-19.22,0-33.94-5.72-44.13-17.18ZM776.5,382.7c-1-11.7-4.22-20.56-9.65-26.58-5.44-6.02-13-9.03-22.69-9.03s-17.01,3.01-22.44,9.03c-5.43,6.02-8.82,14.88-10.16,26.58h64.94Z"/>
    <path class="cls-3" d="M831.34,443.01c-10.53-11.78-15.8-28.12-15.8-49.02s5.35-36.32,16.05-47.77c10.7-11.45,25.83-17.18,45.38-17.18,16.55,0,29.92,4.1,40.12,12.29,10.19,8.19,16.05,19.64,17.55,34.35h-26.08c-1.84-8.86-5.44-15.63-10.78-20.31-5.35-4.68-12.37-7.02-21.06-7.02-11.54,0-20.31,4.01-26.33,12.04-6.02,8.02-9.03,19.48-9.03,34.35s3.01,26.33,9.03,34.35c6.02,8.03,14.79,12.04,26.33,12.04,8.53,0,15.5-2.34,20.94-7.02,5.43-4.68,9.07-11.45,10.91-20.31h26.08c-1.51,14.71-7.32,26.2-17.43,34.48-10.12,8.27-23.61,12.41-40.49,12.41-19.73,0-34.85-5.89-45.38-17.68Z"/>
    <path class="cls-3" d="M962.1,443.26c-10.2-11.45-15.3-27.46-15.3-48.02s5.3-36.69,15.92-48.39c10.61-11.7,25.45-17.55,44.51-17.55s32.43,5.52,42.13,16.55c9.69,11.03,14.54,26.75,14.54,47.14v5.27h-91.02c1,28.75,12.54,43.13,34.6,43.13,8.53,0,15.38-2.05,20.56-6.14,5.18-4.1,8.61-9.82,10.28-17.18h24.57c-2.01,13.04-7.9,23.36-17.68,30.97-9.78,7.61-22.78,11.41-38.99,11.41-19.22,0-33.94-5.72-44.13-17.18ZM1038.58,382.7c-1-11.7-4.22-20.56-9.65-26.58-5.44-6.02-13-9.03-22.69-9.03s-17.01,3.01-22.44,9.03c-5.43,6.02-8.82,14.88-10.16,26.58h64.94Z"/>
    <path class="cls-3" d="M1082.58,331.55h20.56v10.28l-1.76,14.04h2.26c2.67-8.02,7.31-14.5,13.91-19.43,6.6-4.93,14.92-7.4,24.95-7.4,7.02,0,12.87,1,17.55,3.01v24.07c-5.68-2.01-11.45-3.01-17.3-3.01-10.87,0-19.35,3.51-25.45,10.53-6.1,7.02-9.15,16.89-9.15,29.59v64.94h-25.58v-126.63Z"/>
  </g>
  <path class="cls-1" d="M1120.21,183.23c-2.95,13.17-8.27,22.05-19.46,29.81v-66.87c-.3-21.86-.73-67.08-.73-67.08-1.16-8.47-16.66-8.29-22.19-3.33l-59.98,53.64c-3.18,2.84-7.74-1.16-10.3-3.4l-58.31-51.07c-5.67-4.97-20.48-2.82-20.53,5.81,0,0-.71,112.64-.44,149.7-16.76-15.53-26.26-36.06-26.26-58.58l.56-103.36c.04-9.54,6.36-17.31,14.88-19.93l73.18-22.56c12.26-3.78,24.09-4.96,36.6-1.41l75.87,22.67c11.79,3.34,19.35,12.25,19.44,25.04l.74,86.39c.05,7.37,6.75,9.13,12.45,8.32,5.89-.84,10.31-5.95,10.29-13.27l-.2-84.97c-.04-20.1-10.09-33.66-28.94-39.37l-75.73-24.18c-20.86-6.32-40.34-7.32-61.18-.63l-81.33,26.12c-12.66,4.07-20.12,12.56-20.01,26.33l1.02,114.36c.18,23.04,4.53,54.84,39.88,82.44,22.52,17.58,44.19,28.5,93.24,29.22,58.07-5.95,92.3-42.08,107.52-55.83,10.28-9.28,24.75-29.43,22.72-41.93-2.16-13.35-20.56-12.08-22.81-2.06ZM1012.2,259.59c-19.41.05-36.93-3.31-52-9.32l-.91-124.17,38.52,34.31c1.48,1.32,3.09,2.49,4.82,3.45,7.11,3.95,13.59,4.93,20.69,1.97,2.87-1.2,5.45-2.98,7.72-5.11l39.03-36.49.13,53.1h0s-.53,59.35-.53,59.35c-17.29,11-36.85,20.65-57.46,22.9Z"/>
</svg>