<?xml version="1.0" encoding="UTF-8"?>
<svg id="Camada_1" data-name="Camada 1" xmlns="http://www.w3.org/2000/svg" viewBox="0 0 989.92 1063.71">
  <defs>
    <style>
      .cls-1 {
        fill: #0a1f44;
      }
    </style>
  </defs>
  <path class="cls-1" d="M918.13,120.95L591.42,15.35c-63.35-20.47-130.3-20.46-193.63.04L71.74,120.95C28.83,134.84,0,174.47,0,219.58v418.45c0,69.85,20.12,137.33,58.18,195.14,34.58,52.52,77.72,97.59,128.25,133.98,115.27,82.99,235.02,96.57,300.93,96.57,2.8,0,5.5-.02,8.1-.07,1.7-.03,3.39-.15,5.07-.35,76.35-9.18,190.63-37.45,301.47-120.01,93.12-69.35,128.7-140.18,152.25-187.05,2.58-5.13,5.04-10.05,7.48-14.73,12.64-24.31,3.17-54.25-21.13-66.89-24.31-12.64-54.26-3.17-66.89,21.13-2.63,5.07-5.31,10.39-8.1,15.95-15.13,30.12-32.88,65.39-67.55,102.79v-487.41c0-20.39-12.11-38.84-30.81-46.96-18.71-8.12-40.46-4.35-55.35,9.58l-218.76,204.71-214.79-204.41c-14.83-14.11-36.65-18.03-55.46-9.96-18.82,8.07-31.02,26.57-31.02,47.05v514.38c-18.81-19.12-35.84-40.08-50.83-62.85-27.36-41.57-41.83-90.19-41.83-140.59V219.58c0-1.94,1.24-3.65,3.09-4.25l326.05-105.56c43.36-14.04,89.2-14.05,132.57-.03l326.7,105.61c1.85.6,3.1,2.31,3.1,4.25v356.54c0,27.39,22.21,49.6,49.6,49.6s49.6-22.21,49.6-49.6V219.6c0-45.12-28.85-84.77-71.79-98.65ZM294.24,446.48l163.31,155.41c19.65,18.7,50.46,18.82,70.26.3l167.87-157.09v447.98c0,.62.07,1.22.09,1.84-76.5,45.1-151.09,62.88-204.53,69.57-43.47.43-119.08-6.22-198.02-47.68.66-3.28,1.01-6.67,1.01-10.15v-460.19Z"/>
</svg>