<?xml version="1.0" encoding="UTF-8"?>
<svg id="Camada_1" data-name="Camada 1" xmlns="http://www.w3.org/2000/svg" viewBox="0 0 1080 1080">
  <defs>
    <style>
      .cls-1 {
        fill: #234663;
      }

      .cls-2 {
        fill: #0a1f44;
      }

      .cls-3 {
        fill: #fff;
      }

      .cls-4 {
        fill: #244660;
      }

      .cls-5 {
        fill: #2f8fa3;
      }

      .cls-6 {
        fill: #1f3b57;
      }
    </style>
  </defs>
  <path class="cls-5" d="M939.96,774.78l-.76,72.51c-.42,39.62-31.63,67.7-72,67.58l-501.33-1.5c-39.02-.12-72.98-26.66-73.06-67.83l-1-514.62c-.14-74.15,97.62-63.95,137.78-62.94,8.27-64.25-10.13-123.28,9.18-177.24l14.44,8.59-1.78,616.08c3.81,28.92,9.49,36.37,39.21,42.38l440.68,2.4,8.64,14.58Z"/>
  <path class="cls-2" d="M939.96,774.78l-442.82-2.13c-34.94-.17-60.23-19.87-60.25-56.91l-.21-457.34,2.09-167.66c7.75-21.66,30.22-34.4,59.14-36.56,151.54-11.31,303.29-11.44,454.65-1.25,39.52,2.66,64.06,25.68,64.18,64.62l1.85,582.89c.06,19.21-4.22,42.69-17.81,54.83-15.92,14.22-41.74,19.61-60.83,19.51Z"/>
  <path class="cls-3" d="M479.99,127.09l14.69,8.05,459.9-5.47,14.56-10.44c5.93,10.55,8.11,16.12,8.04,29.6l-2.68,529.83c-.16,31.96-16.87,57.54-49.54,57.51l-399.1-.33c-30.22-.03-49.28-18.66-49.22-49.51l.7-391.92c.1-58.3-10.29-114.72,2.65-167.33Z"/>
  <path class="cls-4" d="M790.74,499.39l-207.33.82c-23.76.09-37.64-12.4-36.57-35.29.79-16.91,13.56-30.41,37.01-30.41l203.21.05c19.68,0,31.99,11.2,34.64,25.14,3.64,19.21-4.52,39.58-30.96,39.68Z"/>
  <path class="cls-6" d="M869.39,628.43c-81.01,4.65-157.13,2.29-234.82,1.52-20.18-.2-28-21.82-27.89-33.44.17-18.86,15.52-27.31,35.08-27.4l211.05-1.02c18.21-.09,30.72,8.85,34.52,22.32,2.78,9.85,2.28,36.87-17.93,38.03Z"/>
  <path class="cls-1" d="M738.2,364.17c-58.52,1.94-112.89,2.39-168.38,1.05-20.91-.5-26.18-24.46-24.63-38.17,2.09-18.47,16.64-27.57,38.18-27.32l152.48,1.8c18.58.22,30.18,10.67,31.11,25.61.87,13.91-5.78,36.26-28.76,37.02Z"/>
</svg>