<?xml version="1.0" encoding="UTF-8"?>
<svg id="Camada_1" data-name="Camada 1" xmlns="http://www.w3.org/2000/svg" viewBox="0 0 1080 1080">
  <defs>
    <style>
      .cls-1 {
        fill: #0a1f44;
      }

      .cls-2 {
        fill: #4ccb7a;
      }
    </style>
  </defs>
  <path class="cls-2" d="M669.61,1040.66l-254.84-.39c-33.76-.05-60.22-29.1-60.56-61.79l-2.49-244.08-229.53-1.73c-40.26-.3-70.93-26.78-70.94-67.82l-.1-246.87c-.02-38.9,27.95-68.51,67.06-68.63l234.57-.73.05-236.16c0-36.31,21.09-70.7,61.95-70.93l253.08-1.38c40.34-.22,62.18,36.49,62.35,73.01l1.09,234.45,234.47,2.47c38.52.41,64.61,30.21,65.08,67.99,1.06,85.71,3.01,168.66-.24,253.85-1.36,35.51-29.59,60.19-64.21,60.63l-235.37,2.95-1.99,244.21c-.25,30.63-24.94,61.02-59.45,60.97Z"/>
  <path class="cls-1" d="M673.69,952.57c.05,19.98-11.08,31.55-27.43,31.56l-204.13.21c-8.53,0-15.97-1.35-21.13-4.01-6.15-3.18-9.91-13.23-9.98-23.79l-1.56-235.71c-.16-24.03-22.53-42.95-46.38-43.04l-224.99-.85c-19.25-.07-31-12.6-30.59-33.09l4.78-234.68,250.5-4.35c26.44-.46,47.24-21.3,47.48-47.58l2.36-257.99,233.49-2.75c14.37-.17,26.34,10.41,26.37,24.37l.51,239.64c.05,25.5,20.17,44.8,45.44,44.85l225.88.47c16.58.03,31.03,8.25,31.01,27.23l-.24,210.9c-.02,20.31-11.35,33.34-30.8,33.36l-225.75.3c-26.48.04-45.49,20.39-45.43,45.85l.59,229.08Z"/>
</svg>