<?xml version="1.0" encoding="UTF-8"?>
<svg id="Camada_1" data-name="Camada 1" xmlns="http://www.w3.org/2000/svg" viewBox="0 0 1080 1080">
  <defs>
    <style>
      .cls-1 {
        fill: #4ccb7a;
      }

      .cls-2 {
        fill: #f3f7f7;
      }
    </style>
  </defs>
  <path class="cls-1" d="M850.07,696.77c-16.08,12.65,16.95,143.1-62.76,143.59l-486.78,3.04-129.31,88.82c-11.58,7.96-26.39,3.87-34.87-3.67-22.26-19.81-6.51-88.11-14.1-124.53-41.78-4.2-64.65-30.34-64.5-69.89l1.7-455.34c.14-36.24,33.27-60.2,65.83-60.16l104.73.1c1.75-46.18-6.18-83.85,8-121.28l15.93,7.46c-3.3,176.64-1.8,352.37,4.48,527.19,20.8,19.99,31.2,29.98,31.2,29.98,177.3,7.82,355.69,10.46,535.17,7.9,18.87,2.02,32.7,5.99,25.28,26.79Z"/>
  <path class="cls-1" d="M850.07,696.77c-7.84-5.36-15.63-11.03-30.09-11.07l-501.92-1.48c-42.48-.13-81.1-32.2-81.01-76.95l.96-509.81c11.06-29.18,26.61-59.47,69.49-59.37l655.56,1.5c47.56.11,80.93,36.89,80.92,82.71l-.21,652.08c0,19.03-12.4,35.24-23.33,40.24-39.73,18.19-104-72.42-170.37-117.85Z"/>
  <path class="cls-2" d="M867.97,631.77l-540.69-1.35c-20.93-.05-34.06-18.89-34.08-38.32l-.49-462.26c-.02-21.72,19.3-36.14,40.73-36.1l605.83,1.29c31.23.07,52.15,18.01,52.07,50.01l-1.55,591.66-121.81-104.93Z"/>
  <path class="cls-1" d="M819.71,292.49l-389.9-.87c-15.25-.03-24.96-14.69-26.28-23.04-1.96-12.4,8.62-30.66,26.48-30.7l383.35-.85c16.67-.04,29.59,11.74,31.24,24.25,1.24,9.48-5.59,31.26-24.88,31.21Z"/>
  <path class="cls-1" d="M811.75,480.31l-381.29-1.21c-17.37-.06-27.39-15.54-26.88-26.84.59-13.19,9.83-27.36,27.43-27.42l380.57-1.42c21.37-.08,33.47,13.03,34.32,28.34,1.06,18.95-12.86,28.62-34.14,28.55Z"/>
</svg>