<?xml version="1.0" encoding="UTF-8"?>
<svg id="Camada_1" data-name="Camada 1" xmlns="http://www.w3.org/2000/svg" viewBox="0 0 1080 1080">
  <defs>
    <style>
      .cls-1 {
        fill: #8dea7d;
      }

      .cls-2 {
        fill: #fff;
      }

      .cls-3 {
        fill: #4ccb7a;
      }
    </style>
  </defs>
  <path class="cls-3" d="M703.87,391.94c6.75.31,6.49,2.47.15,6.26,1.95,128.51-101.48,243.42-229.62,253.04,3.28,2.49,3.69,5.63,3.52,9.5-5,109.51-4.03,226.84,129.5,249.21,70.98,11.89,154.15-29.63,170.64-103.03l6.42-223.14,14.77-10.28c22.92-1.63,46.18-2.06,69.77-1.28-2.74,75.35,8,151.9-3.08,230.01-17.41,122.68-127.53,201.49-245.11,196.75-118.9-4.8-227.31-94.03-230.47-217.14l-3.51-136.85c-130.6-21.11-234.43-118.31-244.29-254.29-4.19-57.82-8.08-114.94-1.49-172.59,9.11-79.66,94.13-131.36,169.04-119.8,23.99,3.7,34.59,24.16,34.96,41.11,1.64,76.39-131.67,15.26-129.15,91.65,1.83,55.42-2.47,108.61,3.6,164.78,10.67,98.68,101.18,170.02,197.28,172.93,92.48,2.8,185.26-62.14,201.12-158.5,9.9-60.12,3.04-119.4,6.15-179.43,4.05-77.92-129.53-17.35-127.29-91.37.54-17.67,11.88-34.66,32.93-40.25,47.27-12.57,94.09,8.99,125.88,37.52,76.16,68.36,30.58,153.27,48.29,255.2Z"/>
  <path class="cls-3" d="M871.35,544.61c-23.95-4.71-31.64-47.71-9.45-59.08l2.89-19.3c68-65.19-41.96-142.55-80.29-55.34l-16.1,1.59c-13.19,17.31-55.46-1.38-56.47-21.58,7.24-64.39,76.25-106.03,143.22-94.45,61.16,10.57,104.55,62.05,108.13,119.87,3.63,58.72-34.51,115.22-91.93,128.29Z"/>
  <path class="cls-1" d="M768.4,412.48c12.07,3.12,19.2,14.45,21.39,34l14.4,17.99c19.78,7.13,39.02,14.15,57.71,21.06.62,20.06,5.19,39.56,9.45,59.08,1.93,8.86-2.03,18.79-2.35,27.61-15.69,22.89-51.38,20.64-69.77,1.28-65.1-40.98-126.28-89.72-95.22-175.29.23-1.96.19-4.31-.15-6.26,2.58.19,5.54-1.5,8.07-1.05,20.01,3.55,37.74,14.03,56.47,21.58Z"/>
  <path class="cls-2" d="M861.91,485.53c-20.49,11.32-50.19,2.69-66.44-9.46-20.5-15.32-26.43-39.67-27.06-63.59,9.27-28.15,31.56-51.72,57.32-54.89,36.35-4.47,63.85,19.73,72.67,46.33,11.39,34.34-8.18,65.96-36.49,81.61Z"/>
</svg>