<?xml version="1.0" encoding="UTF-8"?>
<svg id="Camada_1" data-name="Camada 1" xmlns="http://www.w3.org/2000/svg" xmlns:xlink="http://www.w3.org/1999/xlink" viewBox="0 0 1080 1080">
  <defs>
    <style>
      .cls-1 {
        fill: #4ccb7a;
      }

      .cls-2 {
        fill: url(#Gradiente_sem_nome_44);
      }
    </style>
    <linearGradient id="Gradiente_sem_nome_44" data-name="Gradiente sem nome 44" x1="37.84" y1="410.13" x2="990.82" y2="410.13" gradientUnits="userSpaceOnUse">
      <stop offset="0" stop-color="#0a1f44"/>
      <stop offset=".52" stop-color="#2f8fa3"/>
      <stop offset="1" stop-color="#4ccb7a"/>
    </linearGradient>
  </defs>
  <path class="cls-2" d="M362.7,505.93l-274.36,200.78c-13.63,9.98-27.89,12.23-40.2,3.24-10.41-7.61-16.06-31.68-1.54-42.61l270.35-203.47c18.37-13.83,39.6-28.16,62.22-17.09l146.17,71.47,335.36-327.54c-30.68-9.82-95.96-1.38-95.75-42.11.08-14.76,11.63-26.09,28.87-27.78l163.6-16.02c17.75-1.74,33.91,16.14,33.38,33.47-1.76,57.75,1.84,113.24-3.69,170.32-1.94,20.08-26.8,21.87-38.53,19.86-19.03-3.27-26.98-18.54-27.35-38.12l-1.23-65.02c-62.69,49.54-114.74,103.53-170.76,158.64l-181.73,178.8c-16.42,16.15-37.64,22.53-59.42,12.19l-145.39-69Z"/>
  <path class="cls-1" d="M980.08,921.7c-41.57-2.87-131.21,17.62-131.34-35.24l-1.05-419.07c-.13-50,73.34-37.87,126.91-36.3,20.79.61,34.23,15.34,37.68,36.2l.12,413.43c0,19.53-12.82,34.89-32.32,40.98Z"/>
  <path class="cls-1" d="M721.18,921.66l-85.97.94c-25.05.27-42.1-16.35-42.09-41.51l.09-223.71c3.27-19.43,15.33-33.24,35.43-33.59,50.87-.9,127.99-12.05,128.13,36.43l.65,220.54c.07,22.15-13.23,40.65-36.23,40.91Z"/>
  <path class="cls-1" d="M503.01,881.4c-1.36,52.8-69.37,43.34-130.57,40.18-18.71-.97-34.14-14.78-34.23-33.74l-.62-131.91c-.25-53.24,69.99-40.27,127.74-39.32,19.2.32,35.72,14.31,36.69,33.75,2.2,44.22,2.14,86.24.99,131.04Z"/>
  <path class="cls-1" d="M231.92,912.65c-38.38,16.94-88.31,14.03-127.27,3.24-31.16-8.63-30.81-80.94.24-88.45,40.52-9.79,86.5-10.41,125.65,1.33,24.21,7.26,27.04,72.55,1.38,83.89Z"/>
</svg>