<?xml version="1.0" encoding="UTF-8"?>
<svg id="Camada_1" data-name="Camada 1" xmlns="http://www.w3.org/2000/svg" xmlns:xlink="http://www.w3.org/1999/xlink" viewBox="0 0 1080 1080">
  <defs>
    <style>
      .cls-1 {
        fill: #0a1f44;
      }

      .cls-2 {
        fill: #f2f8f5;
      }

      .cls-3 {
        fill: #f2f8f3;
      }

      .cls-4 {
        fill: url(#Gradiente_sem_nome_44);
      }
    </style>
    <linearGradient id="Gradiente_sem_nome_44" data-name="Gradiente sem nome 44" x1="207.14" y1="431.64" x2="1025.76" y2="431.64" gradientUnits="userSpaceOnUse">
      <stop offset="0" stop-color="#0a1f44"/>
      <stop offset=".52" stop-color="#2f8fa3"/>
      <stop offset="1" stop-color="#4ccb7a"/>
    </linearGradient>
  </defs>
  <path class="cls-4" d="M493.48,500.76c-25.49,34.45-78.51,59.71-86.63,98.38-4.85,48.26-7.54,93.75-51.3,115.56-43.87,21.86-95.67,13.79-125.89-23.13-29.33-35.84-29.79-85.6-2.72-121.59,29.21-38.83,80.44-47.96,128.39-29.08,34.11-26.35,62.32-56.44,94.8-87.82-19.23-57.79,6.25-117.9,60.35-135.81,55.37-18.33,109.25,14.19,132.88,70.19,7.74,18.34,52.38,24.79,72.97,22.76l172.66-181.09c-20.52-18.31-83.77-6.79-85.74-47.19-.81-16.63,11.39-30.39,30.81-32.12l146.06-13.05c25.73-2.3,44.88,15.17,45.4,41.44.92,46.46-.74,90.82-3.91,136.91-1.16,16.84-11.98,30-24.45,32.59-17.3,3.6-33.53-3.52-41.72-21.01-8.35-17.84-2.97-34.38-10.33-57.47-61.69,60.65-123.16,117.92-177.63,184.72-9.98,12.24-8.61,31.47-19.88,35.53-48.19,17.36-56.29-29.55-113.35-23.65-38.28,37.3-78.46,61.1-140.77,34.95Z"/>
  <path class="cls-1" d="M1024.76,983.9l-924.22.61c-16.01.01-29.88-13.06-29.89-28.9l-.21-849.27c0-16.34,7.68-25.62,19.65-28.27,10.24-2.27,30.11,2.69,30.13,21.59l1.09,836.05,900.77-.04c14.76,0,23.54,10.85,25.78,19.22,2.24,8.4-2.41,29-23.1,29.01Z"/>
  <path class="cls-1" d="M919.37,828.33c.07,18.92-14.3,25.73-24.51,26.31-16.05.91-25.2-10.91-25.22-29.29l-.25-225.58c-.02-16.06,5.35-27.79,19.77-29.89,12.54-1.83,29.32,4.86,29.39,23.48l.82,234.97Z"/>
  <path class="cls-1" d="M632.34,821.8c0,20.17-8.98,30.55-20.04,32.57-15.36,2.8-29.4-8.52-29.4-26.23l.05-190.89c0-14.3,14.48-20.35,22.73-20.59,12.66-.37,26.64,10.51,26.65,26.95v178.19Z"/>
  <path class="cls-3" d="M288.69,595.93c24.04-11.79,45.33.74,52.89,18.73,8.16,19.4-1.49,39.08-17.09,47.64-19.47,10.69-41.6,3.86-52.1-12.48-10.97-17.06-7.02-42.45,16.3-53.89Z"/>
  <path class="cls-2" d="M521.51,379.54c20.76-13.35,43.26-4.95,52.92,9.86,12.27,18.82,8.85,42.21-9.97,54.38-16.09,10.4-36.77,7.51-50.28-7.15-13.24-14.36-14.81-42.86,7.33-57.09Z"/>
</svg>