<?xml version="1.0" encoding="UTF-8"?>
<svg id="Camada_1" data-name="Camada 1" xmlns="http://www.w3.org/2000/svg" xmlns:xlink="http://www.w3.org/1999/xlink" viewBox="0 0 1080 1080">
  <defs>
    <style>
      .cls-1 {
        fill: #f4f8f7;
      }

      .cls-2 {
        fill: #2f8fa3;
      }

      .cls-3 {
        fill: #f2f8f6;
      }

      .cls-4 {
        fill: url(#Gradiente_sem_nome_44);
      }
    </style>
    <linearGradient id="Gradiente_sem_nome_44" data-name="Gradiente sem nome 44" x1="69.5" y1="449.9" x2="1022.52" y2="449.9" gradientUnits="userSpaceOnUse">
      <stop offset="0" stop-color="#0a1f44"/>
      <stop offset=".52" stop-color="#2f8fa3"/>
      <stop offset="1" stop-color="#4ccb7a"/>
    </linearGradient>
  </defs>
  <path class="cls-4" d="M416.94,508.05c-53.34,50.91-118.55,89.73-160.21,148.3,2.52,42.01,2.34,92.26-38.27,117.04-40.23,24.55-88.59,21.67-120.32-9.05-34.49-33.39-36.41-85.84-13.33-122.19,26.92-42.42,77.24-53.85,126.76-32.48,57.16-44.35,109.17-92.29,161.9-143.47-24.03-58.3,2.08-120.28,56.92-138.72,56.68-19.06,116.77,20.1,126.24,82.06,25.21,10.91,46.72,15.62,74.64,24.38,26.3-35.43,71.93-30.03,106.98-31.3,59.88-58.62,105.94-135.06,157.93-200.58-35.52-13.09-92.58-8.93-91.59-45.45.26-9.57,8.11-23.06,22.55-24.99l160.43-21.38c17.5-2.33,33.88,11.76,33.82,29.85-.19,55.2,2.94,108.21-.47,163.13-1.17,18.86-21.8,24.8-34.97,22.33-41.87-7.83-27.99-60.77-37.43-87.31l-159.54,202.18c7.69,28.31,18.31,56.38,7.1,85.5-17.9,46.47-60.52,75.07-108.79,65.95-45.67-8.63-79.9-48.26-77.49-99.45-19.3-13.35-40.55-20.75-64.01-25.16-30.39,39.54-72.53,61.44-128.83,40.81Z"/>
  <path class="cls-2" d="M1033.02,925.52c.03,50.58-73.84,41.36-123.19,38.93-21.22-1.05-36.65-17.52-36.74-38.74l-1.56-375.02c2.58-21.3,15.59-36.97,37.67-36.88l78.9.32c24.37.1,44.69,16.87,44.71,42.74l.22,368.65Z"/>
  <path class="cls-2" d="M755.02,964.6l-92.52.4c-20.95.09-35.89-11.85-39.52-32.61v-201.12c0-19.01,14.35-33.88,32.91-33.88h92.01c18.6,0,37.03,14.06,37.04,34.03l.16,194.84c.02,18.81-9.37,32.54-30.09,38.34Z"/>
  <path class="cls-2" d="M533.49,925.94c.15,52.1-68.85,40.81-124.32,39.29-22.26-.61-37.09-17.58-37.16-39.33l-.56-168.49c-.07-21.37,17.07-37.47,38.04-37.08,60.43,1.1,123.38-12.24,123.52,37.12l.49,168.49Z"/>
  <path class="cls-2" d="M267.73,956.12c-36.82,16.69-89.75,13.59-125.98,2.18-31.78-10.01-28.05-79.14,2.89-85.95,39.18-8.63,80-8.78,119,.54,25.57,6.11,31.79,70.67,4.09,83.23Z"/>
  <path class="cls-3" d="M442.14,384.34c21.47-11.09,44.17-1.34,52.58,17.4,8.15,18.16.82,40.67-17.86,50.41-17.32,9.03-38.5,3.05-48.56-10-14.67-19.02-9.65-45.67,13.84-57.81Z"/>
  <path class="cls-3" d="M150.67,658.12c22.16-9.08,41.18,7.6,48.36,21.97,10.46,20.94-3.24,42.52-21.23,49.62-20.28,8.01-38.62.73-48.8-19.51-7.86-15.61-2.22-42.3,21.67-52.08Z"/>
  <path class="cls-1" d="M697.62,461.31c20.75-3.95,39.55,10.05,43.77,26.66,5.5,21.63-7.06,41.86-29.95,47.84-17.71,4.63-38.35-7.59-44.77-31.11-4.33-15.86,8.72-39.17,30.95-43.4Z"/>
</svg>