<?xml version="1.0" encoding="UTF-8"?>
<svg id="Camada_1" data-name="Camada 1" xmlns="http://www.w3.org/2000/svg" viewBox="0 0 1080 1080">
  <defs>
    <style>
      .cls-1 {
        fill: #0a1f44;
      }

      .cls-2 {
        fill: #fff;
      }

      .cls-3 {
        fill: #4480b5;
      }

      .cls-4 {
        fill: #3d7bb2;
      }

      .cls-5 {
        fill: #f2f7f8;
      }

      .cls-6 {
        fill: #3877ae;
      }

      .cls-7 {
        fill: #3e7cb0;
      }
    </style>
  </defs>
  <path class="cls-1" d="M959.54,377.74l-1.37,582.93c-.1,40.85-31.97,67.54-71.88,67.55l-741.07.11c-42.14,0-74.49-30.07-74.53-75.01l-.64-797.93c-.04-44.37,33.14-74.12,75.74-74.18l508.63-.66c19.12-.02,35.64,6.59,48.27,19.1l240.6,238.33c8.15,8.08,16.28,22.37,16.24,39.75Z"/>
  <path class="cls-2" d="M701.08,397.64l197.84,1.66,1.8,571.06-771.78.41-1.42-800.99c-.03-15.8,2.84-26.66,18.3-31.72l492.11.51c5.07,68.57,2.12,131.52,3,197.37.45,33.74,21.86,58.56,60.15,61.7Z"/>
  <path class="cls-5" d="M721.98,340.24c-45.97.35-18.69-110.61-21.33-159.24l158.84,158.18-137.51,1.06Z"/>
  <path class="cls-6" d="M777.1,674.46l-521.52.45c-16.16.01-23.81-12.82-24.18-22.91-.6-15.88,11.75-25.72,30.44-25.7l508.42.41c16.64.01,27.25,6.24,29.49,18.74,1.58,8.83-4.2,29-22.64,29.01Z"/>
  <path class="cls-3" d="M777.29,513.68l-520.23.98c-15.31.03-23.45-12.42-24.04-21.91-.96-15.44,10.15-26.45,28.73-26.5l515.28-1.38c14.19-.04,22.66,13.27,24.13,21.04,2.22,11.74-6.73,27.73-23.87,27.76Z"/>
  <path class="cls-4" d="M546.79,837.2l-292.71.55c-15.63.03-24.22-13.51-23.11-24.73,1-10.1,9.27-22.86,24.39-22.88l282.35-.45c15.29-.02,24.46,7.19,27.7,17.44,2.74,8.68-.68,30.04-18.61,30.07Z"/>
  <path class="cls-7" d="M539.4,340.19l-284.03.56c-14.88.03-22.83-13.64-23.03-23.12-.32-14.91,11.27-25.1,29.09-25.12l269.19-.43c15.37-.02,28.02,6.66,29.32,18.55.93,8.48-2.98,29.54-20.54,29.58Z"/>
</svg>