<?xml version="1.0" encoding="UTF-8"?>
<svg id="Camada_1" data-name="Camada 1" xmlns="http://www.w3.org/2000/svg" viewBox="0 0 1080 1080">
  <defs>
    <style>
      .cls-1 {
        fill: #0a1f44;
      }

      .cls-2 {
        fill: #4ccb7a;
      }

      .cls-3 {
        fill: #e8eded;
      }
    </style>
  </defs>
  <path class="cls-1" d="M579.9,1020.52c-23.12,12.7-43.53,11.57-64,.14-193.01-107.78-358.52-261.69-358.11-499.72l.54-312.6c.04-21.8,7.24-32.3,28.45-37.41,109.95-26.48,220.78-53.03,320.87-105.08,32.81-17.07,50.25-17.39,82.44.59,94.19,52.62,201.28,74.82,306.05,100.97,23.4,5.84,39.71,14.65,39.62,40.8l-1.07,327.38c-.41,123.6-52.76,232.57-135.63,321.68-62.76,67.48-136.11,117.64-219.16,163.25Z"/>
  <path class="cls-2" d="M878.52,556.9c-12.19,201.79-161.63,340.2-333.85,418.77-186.31-99.23-335.37-240.9-334.42-461.64l1.29-296.25c119.88-22.65,228.43-55.93,338.41-109.62,107.07,56.33,214.15,85.08,328.49,111.54l.08,337.2Z"/>
  <path class="cls-3" d="M503.35,658.09c-41.15-39.62-97.15-77.38-73.03-106.62,26.65-32.3,72.67,42.57,95.81,47.78,56.58-49.63,105.29-102.91,157.89-154.35,10.49-10.26,24.67-13.39,35.57-9.39,9.81,3.6,20.2,28.13,8.66,39.81l-172.44,174.47c-13.92,14.09-33.9,26.19-52.47,8.31Z"/>
</svg>