<?xml version="1.0" encoding="UTF-8"?>
<svg id="Camada_1" data-name="Camada 1" xmlns="http://www.w3.org/2000/svg" viewBox="0 0 1080 1080">
  <defs>
    <style>
      .cls-1 {
        fill: #0a1f44;
      }

      .cls-2 {
        fill: #fff;
      }

      .cls-3 {
        fill: #4ccb7a;
      }

      .cls-4 {
        fill: #3773a9;
      }
    </style>
  </defs>
  <path class="cls-1" d="M1033.13,235.27c.54,54.19,2.95,108.12,7.21,161.8l-1.66,565.48c-.12,40.98-29.76,72.75-71.73,72.72l-833.3-.42c-43.6-.02-68.6-38.95-68.56-78.65l.58-553.54c-2.25-22.22,48.9-20.26,52.13-3.1l871.05.32c-8.49-2.18-7.1-3.68,2.99-5.4,2.89-48.47,1.94-96.61-2.84-144.41-6.38-1.51-6.18-3.71.1-6.53-22.78-14.2-4.49-45.4,20.11-42.67,15.4,11.36,20.68,20.3,23.91,34.39Z"/>
  <path class="cls-1" d="M1009.22,200.88c-6.94,14.37-19.87,26.06-20.11,42.67-4.62,4.42-9.98,6.31-16.07,4.78-16.94-4.23-76.75-18.57-89.91-7.77,14.25,114.69-100.73,120.78-88.19,2.1-161.51-4.79-322.1-4.23-481.77,1.68,12.98,115.38-101.93,113.31-88.99-.62-18.25-4.93-82.52-12.59-92.58,5.5-3.22,5.8-8.1,131.48-1.53,132.39l839.29.25,4.95-.7.16-120.64,14.56-10.45c12.47-18.64,7.57,136.5,5.09,153.29l-928.43-.71-.57-144.31c.04-45.86,34.9-79.82,80.31-80.34l92.15-1.05,2.16-115.4c.34-18.4,18.32-23.65,32.45-22.07,43.9,4.92,16.32,91.17,26.77,137.13l508.87,1c10.89-37.37-15.95-133.88,24.94-138.08,18.41-1.89,34.63,9.56,34.99,29.8l1.87,105.61c80.17,12.24,83.65-15.36,139.6,25.92Z"/>
  <path class="cls-4" d="M1040.34,397.07c-22.56-51.69-4.58-105.87-7.21-161.8,12.4,54.14,7.37,109.13,7.21,161.8Z"/>
  <path class="cls-2" d="M962.47,988.23l-816.02.17c-18.96-.33-32.38-12.91-32.34-32.28l1.15-505.37,873.97.36,1.82,504.84c.06,16.09-8.21,27.63-28.58,32.29Z"/>
  <path class="cls-3" d="M989.11,243.55l-.1,6.53-.2,146.33H115.7s-1.71-131.28-1.71-131.28c-.78-60.12,73.44-36.3,121.21-39.17,11.31,23.6-11.28,83.46,31.13,88.48,15.45,1.83,30.36-8.24,30.95-27.28l1.91-61.54,506.79.5c11.89,30.51-10.33,81.26,28.58,87.2,16.32,2.49,30.21-7.13,32.55-26.26,2.57-20.99-1.36-39.91,3.38-60.49,41.09-1.12,93.93-11.3,118.61,16.99Z"/>
  <path class="cls-1" d="M318.94,815.83l-57.9-54.92c-9.7-9.2-12.3-22.56-8.94-30.83,5.69-14.01,24.5-20.2,36.64-10.36l53.02,42.98,136.87-134.23c8.59-8.42,23.7-5.82,30.84-1.8,7.85,4.42,13.62,27.45,4.09,37.21l-146.34,149.9c-12.65,12.96-32.57,16.95-48.28,2.04Z"/>
  <path class="cls-1" d="M839.52,826.78c-69.41,2.85-133.24,1.32-198.92.38-16.39-.23-26.12-15.35-26.76-27.11-.71-12.93,9.44-29.24,27.55-29.28l194.39-.35c16.21-.03,26.51,12.29,27.63,23.88.99,10.22-4.3,31.67-23.89,32.47Z"/>
  <path class="cls-1" d="M832.77,651.39l-191.97-.38c-16.61-.03-26.81-13.54-27.23-25.58-.46-13.07,9.95-29.57,27.88-29.67l194.16-1.04c15.85-.09,26.07,13.32,27.39,24.54,1.61,13.67-8.24,32.17-30.23,32.13Z"/>
</svg>