<?xml version="1.0" encoding="UTF-8"?>
<svg id="Camada_1" data-name="Camada 1" xmlns="http://www.w3.org/2000/svg" viewBox="0 0 1080 1080">
  <defs>
    <style>
      .cls-1 {
        fill: #4ccb7a;
      }
    </style>
  </defs>
  <path class="cls-1" d="M756.31,893.92c-.05,31.93,24.44,49.31,49.46,49.31h125.35c30.04,0,55.05-22.05,55.11-54.49l1.31-731.38c.03-18.16-10.35-30.82-18.42-37.52-12.13-10.07-36.51-13.15-50.82-4.29l-135.09,83.57c-15.03,9.3-25.86,25.73-25.89,45.32l-1.01,649.48Z"/>
  <path class="cls-1" d="M434.17,887.26c-.15,34.72,22.01,56.47,52.36,56.31l124.02-.64c30.59-.16,54.85-21.53,54.9-53.74l.7-535.78c.03-19.17-7.09-33.91-18.65-42.06-14.73-10.38-35.89-12.03-52.4-1.67l-133.26,83.65c-14.68,9.21-25.67,28.47-25.75,47.22l-1.92,446.71Z"/>
  <path class="cls-1" d="M113.96,894.48c-.01,66.26,97.83,50.11,176.79,48.76,29.63-.51,52.62-22.31,52.65-52.41l.35-348.89c.02-17.84-8.76-32.11-19.93-38.69-12.04-7.09-30.71-9.73-45.02-1.57-48.17,27.46-92.8,56.11-139.41,86.21-15.24,9.84-25.36,28.93-25.36,48.29l-.06,258.3Z"/>
</svg>