<?xml version="1.0" encoding="UTF-8"?>
<svg id="Camada_1" data-name="Camada 1" xmlns="http://www.w3.org/2000/svg" xmlns:xlink="http://www.w3.org/1999/xlink" viewBox="0 0 1080 1080">
  <defs>
    <style>
      .cls-1 {
        fill: #fff;
      }

      .cls-2 {
        fill: url(#Gradiente_sem_nome_44-2);
      }

      .cls-3 {
        fill: url(#Gradiente_sem_nome_44);
      }
    </style>
    <linearGradient id="Gradiente_sem_nome_44" data-name="Gradiente sem nome 44" x1="101.11" y1="544.8" x2="960.98" y2="544.8" gradientUnits="userSpaceOnUse">
      <stop offset="0" stop-color="#0a1f44"/>
      <stop offset=".52" stop-color="#2f8fa3"/>
      <stop offset="1" stop-color="#4ccb7a"/>
    </linearGradient>
    <linearGradient id="Gradiente_sem_nome_44-2" data-name="Gradiente sem nome 44" x1="363.72" y1="544.27" x2="699.07" y2="544.27" xlink:href="#Gradiente_sem_nome_44"/>
  </defs>
  <path class="cls-3" d="M579.73,977.9l-101.21-1.04c-56.4-.58-31.89-95.6-52.15-128.46-18.85-30.56-56.26-9.57-73.81,11.42-21.03,25.15-48.66,47.64-80.65,33.67-27.16-11.86-43.75-38.5-65.75-57.07-78.55-66.26,46.51-121.65,38.1-165.16-1.95-10.1-10.43-21.14-24.76-22.88l-83.7-10.19c-19-2.31-31.18-16.59-31.83-36.03-1.8-54.44-14.06-143.88,31.22-149.61l88.68-11.23c15.39-1.95,19.99-16.47,21.53-27,6.01-40.89-103.95-89.32-50.24-147.15,41.12-44.26,83.16-109.49,134.21-62.84l41.73,38.13c14.26,13.03,47.84,18.57,56.51-3.45,17.39-44.15-.42-121.98,44.47-125.07,38.53-2.65,76.09-2.91,114.92-1.05,50.7,2.42,32.91,92.2,50.45,127.98,13.98,28.52,55.1,7.12,71.17-12.63,20.98-25.78,54.67-47.41,85.07-28.59,28.79,17.82,51.1,45.22,74.46,69.2,53.11,54.5-62.51,109.06-51.59,148.75,16.03,58.28,134.56,1.26,142.02,73.82,3.77,36.66,2.4,72.52.69,108.91-3.01,63.87-86.08,30.95-129.49,53.67-61.23,32.04,78.79,91.14,45.68,154.81-15.02,28.89-45.78,48-66.53,71.9-45.83,52.77-94.74-22.7-126-43.37-12.65-8.37-42.38-3.4-47.07,12.65-14.3,48.92,1.56,128.48-56.12,127.89Z"/>
  <path class="cls-1" d="M565.31,915.16c-8.83,14.49-52.87,10.61-66.41,2.53l-21.28-102.98c-6.84-33.1-83.36-56.25-111.19-35.9l-77.21,56.45c-15.37-11.49-45.88-32.1-45.74-50.55,6.74-33.22,46.5-45.68,56.78-78.99,9.57-31-5.94-84.81-33.07-102.25-31.11-20-68.01-9.81-103.5-19-11.01-20.46-7.17-51.56-3.05-76.77,34.7-11.62,71.98-1.33,104.83-20.9,33.01-19.67,46.15-77.21,31.25-111.06-12.76-28.98-48.19-42.79-51.11-73.37-.62-19.36,31.03-38.2,43.24-51.06l77.28,55.09c27.15,19.35,91.74-2.11,110.98-32.56,20.29-32.12,5.18-72.03,20.66-104.74,21.19-5.05,48.54-5.3,68.31,2.31,14.16,32.75.31,72.91,20.8,104.08,19.12,29.08,75.08,43.48,106.65,32.77,32.82-11.14,45.81-41.9,75.09-54.92,20.6,10.91,38.77,30.46,51.93,48.99l-56.07,76.53c-20.72,28.29,3.24,92.39,35.61,109.72,33.09,17.71,70.46,6.43,103.59,20.99,6.46,22.78,6.55,50.56.7,73.25-34.54,12.19-74.15.47-107.13,19.86-28.97,17.03-43.48,71.43-33.76,103.15,9.56,31.19,47.08,47.06,53.85,77.31-1.84,16.66-30.78,45.89-47.75,48.99-28.83-6.54-41.39-43.48-72.06-53.01-33.94-10.54-105.71.72-112.22,33.92l-20.03,102.13Z"/>
  <path class="cls-2" d="M498.63,379.58c97.15-18.21,179.09,45.29,196.84,131.23,19.07,92.3-39.52,182.42-132.69,198.67-88.35,15.41-175.81-38.76-195.62-130.93-18.04-83.93,36.08-181.09,131.46-198.97Z"/>
  <path class="cls-1" d="M515.15,437.22c60.47-10.62,114.7,36.53,123.89,87.72,10.95,61.06-32.09,119.36-91.37,127.14-56.07,7.36-110.88-28.88-123.61-87.12-11.87-54.29,26.13-116.33,91.1-127.74Z"/>
</svg>