<?xml version="1.0" encoding="UTF-8"?>
<svg id="Camada_1" data-name="Camada 1" xmlns="http://www.w3.org/2000/svg" viewBox="0 0 1080 1080">
  <defs>
    <style>
      .cls-1 {
        fill: #0a1f44;
      }

      .cls-2 {
        fill: #fff;
      }

      .cls-3 {
        fill: #4ccb7a;
      }

      .cls-4 {
        fill: #2f8fa3;
      }
    </style>
  </defs>
  <path class="cls-1" d="M938.19,995.18l-294.78-.18c-33.51-.02-61.75-21.74-61.73-56.07l.18-314.77c.02-27.62,26.95-48.25,54.44-48.32l302.38-.74c33.73-.08,56.17,28.63,56.18,60.89l.08,298.52c0,32.16-21.11,57.49-56.74,60.67Z"/>
  <path class="cls-1" d="M937.14,467.07l-299.47-.21c-32.22-.02-56.77-25.64-56.73-57.12l.45-310.55c.05-31.2,32-51.21,61.78-51.2l290.48.18c35.66.02,61.26,29.97,61.16,64.3l-.93,298.77c-.09,29.8-23.23,55.86-56.72,55.84Z"/>
  <path class="cls-1" d="M429.01,993.85l-301.75.26c-33.14.03-57.92-27.35-57.88-59.36l.4-298.67c.04-33.04,22.51-60.71,57.53-60.63l298.02.66c34.27.08,57.65,27.74,57.57,59.81l-.71,298.93c-.07,28.64-17.74,58.98-53.19,59.01Z"/>
  <path class="cls-1" d="M434.34,468.1l-305.44-.99c-36.31-.12-59.29-28.41-59.39-63.13l-.88-290.96c-.12-39.34,26.13-65.86,65.92-65.91l283.36-.35c34.67-.04,65.06,24.28,65,59.42l-.53,304.27c-.05,28.63-17.53,49.91-48.03,57.65Z"/>
  <polygon class="cls-2" points="936.19 934.74 641.45 936.26 641.63 634.49 935.24 634.82 936.19 934.74"/>
  <polygon class="cls-4" points="935.52 408.57 642.21 408.96 640.77 109.92 933.68 108.99 935.52 408.57"/>
  <polygon class="cls-3" points="424.04 935.32 128.69 936.23 129.91 635.13 421.29 633.73 424.04 935.32"/>
  <polygon class="cls-2" points="423.59 408.32 129.51 408.87 131.28 108.87 422.61 109.65 423.59 408.32"/>
</svg>