<?xml version="1.0" encoding="UTF-8"?>
<svg id="Camada_1" data-name="Camada 1" xmlns="http://www.w3.org/2000/svg" viewBox="0 0 1080 1080">
  <defs>
    <style>
      .cls-1 {
        fill: #0a1f44;
      }

      .cls-2 {
        fill: #f4f7f8;
      }

      .cls-3 {
        fill: #eef3f5;
      }

      .cls-4 {
        fill: #d2e9f5;
      }

      .cls-5 {
        fill: #2f8fa3;
      }

      .cls-6 {
        fill: #d6eaf6;
      }
    </style>
  </defs>
  <path class="cls-1" d="M561.45,972.81c-21.72,15.47,9.32,90-25.16,94.92-42.09,6.01-20.34-59.25-28.42-94.8-209.94-17.34-382.12-176.34-398.62-389.91-26.04-10.23-81.21,11.3-86.4-19.98-2.7-16.26,5.65-26.86,23.46-28.06,21.59-1.46,40.25,1.24,62.67-2.29,13.14-212.35,181.37-382.1,395.82-400.22,14.81-21.84-12.78-90.46,25.21-92.69,39.33-2.31,15.96,64.64,26.49,92.05,216.81,14.15,387.96,186.94,398.31,402.21,33.49,11.45,84.66-11.24,89.23,22.72,5.64,41.84-58.42,19.89-88.85,28.88-19.15,209.29-182.54,369.91-393.76,387.17Z"/>
  <path class="cls-2" d="M347.89,514.66c19.78-84.62,88.64-143.3,171.39-149.61,113.83-8.68,202.51,84.41,201.01,191.23-1.56,110.47-97.8,193.44-205.35,183.65-109.03-9.92-193.71-111.14-167.04-225.27Z"/>
  <path class="cls-5" d="M769.89,534.96c-16.16-116.31-96.84-201.96-214.62-217.9-2.46-45.5-2.58-88.26.82-136.82,192.88,9.7,342.15,165.44,350.48,354.49l-136.67.23Z"/>
  <path class="cls-6" d="M508.29,316.58c-115.55,19.52-198.59,102.53-212.75,217.97l-138.67-1.67c12.37-184.9,158.86-334.85,349.96-352.73,4.95,43.89,1.79,85.33,1.46,136.43Z"/>
  <path class="cls-4" d="M558.51,925.87c-11.43-46.84-3.25-88.36-4.76-137.72,110.38-15.04,194.68-92.11,213.69-205.43l138.8.84c-15.42,182.26-159.36,325.91-347.73,342.31Z"/>
  <path class="cls-5" d="M507.27,788.42c4.3,46.32,2.47,88.39,1.7,136.97-184.37-14.56-339.39-159.1-350.86-343.69,49.41-2.98,90.22-2.15,136.14.65,20.34,108.44,99.09,188.22,213.02,206.07Z"/>
  <path class="cls-1" d="M511.96,461.99c56.81-12.02,104.05,27.6,113.26,74.57,10.45,53.28-23.23,99.94-72.72,112.06-51.14,12.53-99.68-20.76-111.38-66.76-13.56-53.33,12.83-107.6,70.83-119.87Z"/>
  <path class="cls-3" d="M519.35,513.96c25.92-7.76,49.83,9.65,55.61,29.16,7.27,24.55-5.79,49.72-32.84,56.53-18.29,4.61-42.38-5.63-52.36-26.92-9.5-20.27-.06-49.9,29.59-58.77Z"/>
</svg>