<?xml version="1.0" encoding="UTF-8"?>
<svg id="Camada_1" data-name="Camada 1" xmlns="http://www.w3.org/2000/svg" viewBox="0 0 1080 1080">
  <defs>
    <style>
      .cls-1 {
        fill: #0a1f44;
      }

      .cls-2 {
        fill: #fff;
      }

      .cls-3 {
        fill: #4ccb7a;
      }
    </style>
  </defs>
  <path class="cls-1" d="M932.23,1031.19l-763.63-.13c-103.02-.02-58.58-252.26,50.52-313.88l177.42-100.21c20.75-11.72,27.5-72.22,15.68-93.23-41.97-53.75-70.54-115.11-72.01-187.14-.97-47.7-7.42-94.58,12.9-139.58,33.84-74.96,104.45-120.67,183.03-125.54,80.02-4.96,159.05,34.24,199.91,106.64,26.69,47.29,24.63,98.74,23.68,150.91-1.33,73.86-25.9,135.31-68.51,193.14-14.48,19.65-4.27,78.6,14.49,93.62,37.81,30.27,85.88,49.68,128.11,70.47,184.51,90.86,159.95,301.51,144.18,320.97-8.31,10.25-23.98,23.95-45.76,23.94Z"/>
  <path class="cls-3" d="M821.66,744.64c86.83,44.67,120.4,140.27,103.52,230.72l-745.65-1.25c-26.68-74.26,9.6-178.63,88.42-221.06l144.23-77.64,106.81,106.23c16.35,16.26,41.6,20.34,58.77,3.17l109.37-109.37,134.53,69.21Z"/>
  <path class="cls-2" d="M653.47,473.41c-37.81,43.05-95.12,52.04-147.14,36.74-46.75-13.75-81.05-52.53-97.55-105.39-10.61-34-7.19-68.82-11.53-104.39-10.66-87.34,42.81-158.75,131.9-168.92,47.99-5.48,96.55,9.59,129.83,41.01,36.6,34.56,46.66,82.3,43.95,135.3-2.99,58.36-7.49,117.87-49.45,165.64Z"/>
  <path class="cls-2" d="M644.55,632.17c-30.95,35.96-59.5,67.59-94.34,99.04-33.05-29.67-61.43-59.6-90.51-93.26,2.2-25.06,9.28-47.32,15.07-73.5,51.42,13.76,101.7,15.46,153.3-.35l16.47,68.07Z"/>
</svg>