<?xml version="1.0" encoding="UTF-8"?>
<svg id="Camada_1" data-name="Camada 1" xmlns="http://www.w3.org/2000/svg" viewBox="0 0 1080 1080">
  <defs>
    <style>
      .cls-1 {
        fill: #28475f;
      }

      .cls-2 {
        fill: #0a1f44;
      }

      .cls-3 {
        fill: #fff;
      }

      .cls-4 {
        fill: #213d56;
      }

      .cls-5 {
        fill: #f1f5f6;
      }

      .cls-6 {
        fill: #29445c;
      }

      .cls-7 {
        fill: #203a52;
      }
    </style>
  </defs>
  <path class="cls-2" d="M781.29,1037.55c-20.66,20.79-43.36,29.33-71.3,29.3l-515.52-.48c-32.92-.03-55.9-27.64-55.94-60.09l-1.12-927.7c4.31-34.21,28.1-60.4,64.47-60.38l719.12.28c39.86.02,74.31,22.33,74.3,66.12l-.1,696.47c0,20.2-3.23,44.44-16.54,57.84l-197.37,198.64Z"/>
  <path class="cls-3" d="M769.46,791.53c-92.8,11.01-43.28,132.58-57.74,227.34l-501.81,2.39c-15.15.07-25.29-14.34-25.29-29.18V91.92c0-19.27,14.88-27.63,31.95-27.62l709.22.7c21.01.02,23.02,24.43,23,40.86l-.8,674.64c-61.62,11.29-118.33,3.89-178.54,11.03Z"/>
  <path class="cls-5" d="M761.28,994.46c-2.42-28.32-17.69-156.57,16.91-159.57,47.51-4.13,92.73-5.14,142.03,1.37-49.06,56.47-98.87,103.91-158.94,158.2Z"/>
  <path class="cls-1" d="M807.94,605.69l-220.32.37c-14.89.02-24.16-12.91-23.36-23.84.73-10.05,11.07-22.57,25.07-22.54l220.28.53c13.54.03,21.46,12.26,21.48,21.61.02,9.16-5.94,23.85-23.14,23.88Z"/>
  <path class="cls-7" d="M347.99,341.57c-23.87-18.09-70.03-55.61-56.5-76.36,20.98-32.17,55.26,20.02,76.08,28.39l102.88-100.95c8.04-7.89,22.92-5.79,28.83-1.64,36.8,25.8-65.24,101.98-101.94,140.42-11.78,12.34-30.92,24.12-49.35,10.15Z"/>
  <path class="cls-4" d="M360.66,646.36c-18.95-6.55-86.47-53.4-67.28-82.05,4.76-7.11,19.7-11.41,29-4.53l44.66,33.03,105.38-100.18c9.08-8.63,20.45-6.53,26.25-2.93,36.87,22.86-56.12,95.5-93.46,132.77-10.14,10.12-26.25,30.22-44.57,23.89Z"/>
  <path class="cls-6" d="M812.29,306.06l-222.94-.7c-13.8-.04-25.21-10.5-25.36-21.57-.14-10.04,9.18-23.54,23.68-23.59l217.14-.77c13.84-.05,23.36,8.8,25.43,18.32,2.34,10.74-3.18,21.12-17.96,28.32Z"/>
</svg>