<?xml version="1.0" encoding="UTF-8"?>
<svg id="Camada_1" data-name="Camada 1" xmlns="http://www.w3.org/2000/svg" xmlns:xlink="http://www.w3.org/1999/xlink" viewBox="0 0 1080 1080">
  <defs>
    <style>
      .cls-1 {
        fill: #8dea7d;
      }

      .cls-2 {
        fill: url(#Gradiente_sem_nome_44-2);
      }

      .cls-3 {
        fill: url(#Gradiente_sem_nome_44-3);
      }

      .cls-4 {
        fill: url(#Gradiente_sem_nome_44);
      }
    </style>
    <linearGradient id="Gradiente_sem_nome_44" data-name="Gradiente sem nome 44" x1="313.83" y1="346.7" x2="967.92" y2="346.7" gradientUnits="userSpaceOnUse">
      <stop offset="0" stop-color="#0a1f44"/>
      <stop offset=".52" stop-color="#2f8fa3"/>
      <stop offset="1" stop-color="#4ccb7a"/>
    </linearGradient>
    <linearGradient id="Gradiente_sem_nome_44-2" data-name="Gradiente sem nome 44" x1="209.25" y1="818.78" x2="673.75" y2="818.78" xlink:href="#Gradiente_sem_nome_44"/>
    <linearGradient id="Gradiente_sem_nome_44-3" data-name="Gradiente sem nome 44" x1="97.59" y1="615.06" x2="367.43" y2="615.06" xlink:href="#Gradiente_sem_nome_44"/>
  </defs>
  <path class="cls-4" d="M673.75,619.4c-6.98,21.08-49.25,18.31-56.89-.08-241.44-37.79-300.8-200.03-303.03-427.74,19.25-72.48,136.73-176.48,204.64-112.32,16.35,15.45,24.03,39.81,13.59,62.67-29.53,64.65-141.29-12.17-139.77,61.71,1.2,58.02,5.62,115.85,21.65,172.95,28.49,101.49,125.81,166.5,227.8,167.96,101.66,1.46,199.58-63.12,230.13-163.97,12.06-39.83,34.77-171.92,6.97-204.57-23.5-27.61-94.29,19.81-124.25-30.93-12.34-20.91-7.37-46.03,7.97-61.87,68.77-71.04,190.49,38.93,200.88,104.84,11.96,75.88-1.29,156.4-24.61,228.35-37.28,115.03-143.47,187.86-265.08,202.98Z"/>
  <path class="cls-2" d="M673.75,619.4l-3.16,200.21c-1.72,108.65-98.59,190-205.99,199.74-76.43,6.94-145.45-20.29-194.79-72.49-49.77-52.65-65.53-124.47-59.22-196.06-3.47-22.08,50.49-22.6,54.92-1.49-21.86,107.21,53.13,212.13,158.72,219.73,114.5,8.25,200.42-78.06,196.72-192.8-1.74-54.02,2.65-106.22-4.07-156.93,22.32-5.88,40.46,2.12,56.89.08Z"/>
  <path class="cls-3" d="M265.49,749.32l-54.92,1.49c-86.91,1.61-133.23-100.84-104.45-182.63,25.28-71.83,114.65-113.27,187.46-73.29,53.52,29.39,81.01,85.05,72.24,143.29-7.95,52.79-47.69,95.03-100.33,111.14Z"/>
  <path class="cls-1" d="M217.23,535.05c48.02-10.62,86.81,25.74,94.44,65.01,8.54,43.95-22.49,86.15-64,95.13-42.68,9.23-83.84-20.88-94.01-61.89-10.44-42.1,14.97-87.5,63.56-98.25Z"/>
</svg>